<svg xmlns="http://www.w3.org/2000/svg" viewBox="0 0 573.98 692.9"><defs><style>.cls-1,.cls-28{fill:#fff;}.cls-2{fill:#bbbdbf;}.cls-3{fill:#fcfbfb;}.cls-4{fill:#fcfdfd;}.cls-10,.cls-11,.cls-12,.cls-14,.cls-15,.cls-16,.cls-31,.cls-33,.cls-5,.cls-6,.cls-7,.cls-9{fill:none;}.cls-10,.cls-11,.cls-12,.cls-14,.cls-15,.cls-16,.cls-28,.cls-5,.cls-7,.cls-9{stroke:#231f20;}.cls-10,.cls-11,.cls-12,.cls-14,.cls-15,.cls-16,.cls-28,.cls-31,.cls-33,.cls-5,.cls-6,.cls-7,.cls-9{stroke-miterlimit:10;}.cls-5,.cls-6{stroke-width:2px;}.cls-6{stroke:#ec1c24;}.cls-7{stroke-width:1.5px;}.cls-8{fill:#231f20;}.cls-10,.cls-14,.cls-15,.cls-16,.cls-28,.cls-33{stroke-width:0.5px;}.cls-11{stroke-width:0.75px;}.cls-12{stroke-width:0.25px;}.cls-13{fill:#8e8e8f;}.cls-14{stroke-dasharray:2.95 2.95;}.cls-15{stroke-dasharray:2.98 2.98;}.cls-16{stroke-dasharray:3;}.cls-17{fill:#1f191e;}.cls-18{fill:#131211;}.cls-19{font-size:7.05px;}.cls-19,.cls-20,.cls-21,.cls-22{font-family:Arial-BoldMT, Arial;font-weight:700;}.cls-20{font-size:8.45px;}.cls-21{font-size:16.44px;}.cls-22{font-size:13.93px;}.cls-23{fill:#fdfdfe;}.cls-24{fill:#201f21;}.cls-25{font-size:10.98px;font-family:ArialMT, Arial;}.cls-26{fill:#2d2b2b;}.cls-27{fill:#fdfefd;}.cls-29{fill:#0f0f12;}.cls-30{fill:#171817;}.cls-31,.cls-33{stroke:#0f0f12;}.cls-32{fill:#141513;}</style></defs><g id="Layer_2" data-name="Layer 2"><g id="Layer_1-2" data-name="Layer 1"><rect class="cls-1" width="573.98" height="692.9"/><polygon class="cls-2" points="37.21 541.62 37.21 613.62 542.83 613.62 542.83 569.93 406.92 563.87 406.92 505.62 419.19 498.07 156.4 498.07 37.21 541.62"/><rect class="cls-3" x="168.07" y="506.83" width="238.85" height="64.11"/><polygon class="cls-4" points="43.42 11.73 43.42 183.24 234.34 183.24 234.34 345.03 236.73 348.37 542.02 348.37 542.02 12.81 43.42 11.73"/><path class="cls-2" d="M44,12V56.22H169.89l0,100.05L488.36,156V348h53.12V12.81S43.55,11.6,44,12Z"/><line class="cls-5" x1="487.55" y1="200.22" x2="393.98" y2="201"/><line class="cls-5" x1="431.46" y1="156.27" x2="431.46" y2="172.45"/><line class="cls-5" x1="366.47" y1="157.62" x2="366.47" y2="170.56"/><line class="cls-5" x1="302.26" y1="227.19" x2="302.26" y2="313.48"/><line class="cls-5" x1="431.38" y1="188.09" x2="431.38" y2="279.3"/><line class="cls-5" x1="431.38" y1="292.65" x2="431.38" y2="348.88"/><line class="cls-5" x1="457.08" y1="200.22" x2="457.08" y2="259.28"/><line class="cls-5" x1="344.63" y1="157.62" x2="344.63" y2="200.9"/><line class="cls-6" x1="302.01" y1="182.28" x2="302.01" y2="214.1"/><line class="cls-5" x1="245.53" y1="139.01" x2="245.53" y2="156.13"/><line class="cls-5" x1="246.13" y1="181.89" x2="246.13" y2="190.72"/><line class="cls-5" x1="379.62" y1="200.83" x2="360.4" y2="200.83"/><line class="cls-5" x1="344.22" y1="189.1" x2="331.28" y2="189.1"/><line class="cls-7" x1="272.49" y1="268.65" x2="248.76" y2="268.65"/><line class="cls-7" x1="301.33" y1="268.65" x2="287.85" y2="268.65"/><line class="cls-7" x1="301.33" y1="279.98" x2="287.85" y2="279.98"/><line class="cls-5" x1="467.8" y1="381.64" x2="41.26" y2="381.64"/><line class="cls-5" x1="442.52" y1="259.87" x2="432.2" y2="259.87"/><line class="cls-5" x1="466.16" y1="259.87" x2="455.56" y2="259.87"/><line class="cls-5" x1="488.43" y1="259.87" x2="478.11" y2="259.87"/><line class="cls-5" x1="502.79" y1="259.87" x2="489.24" y2="259.87"/><line class="cls-5" x1="430.99" y1="237.84" x2="360.61" y2="237.84"/><path class="cls-8" d="M303.69,348.47q0-5.4,0-10.82h3.64V335h-3.43v-6.77h-2.43v5.86h-2.93v3.54h2.32v10.82Z"/><path class="cls-8" d="M368.51,348.47q0-5.4,0-10.82h3.64V335H368.7v-6.77h-2.43v5.86h-2.93v3.54h2.32v10.82Z"/><rect class="cls-8" x="169.21" y="180.27" width="3.51" height="2.97"/><polygon class="cls-8" points="246.81 200.54 247.5 201.24 248.49 201.24 248.49 202.22 249.19 202.92 248.49 203.62 248.49 204.6 247.5 204.6 246.81 205.3 246.11 204.6 245.13 204.6 245.13 203.62 244.43 202.92 245.13 202.22 245.13 201.24 246.11 201.24 246.81 200.54"/><polygon class="cls-8" points="268.05 179.01 268.74 179.7 269.73 179.7 269.73 180.69 270.42 181.38 269.73 182.08 269.73 183.06 268.74 183.06 268.05 183.76 267.35 183.06 266.37 183.06 266.37 182.08 265.67 181.38 266.37 180.69 266.37 179.7 267.35 179.7 268.05 179.01"/><polygon class="cls-8" points="268.05 154.22 268.74 154.92 269.73 154.92 269.73 155.91 270.42 156.6 269.73 157.3 269.73 158.28 268.74 158.28 268.05 158.98 267.35 158.28 266.37 158.28 266.37 157.3 265.67 156.6 266.37 155.91 266.37 154.92 267.35 154.92 268.05 154.22"/><polygon class="cls-8" points="246.81 221.38 247.5 222.07 248.49 222.07 248.49 223.06 249.19 223.75 248.49 224.45 248.49 225.43 247.5 225.43 246.81 226.13 246.11 225.43 245.13 225.43 245.13 224.45 244.43 223.75 245.13 223.06 245.13 222.07 246.11 222.07 246.81 221.38"/><polygon class="cls-8" points="246.81 253.13 247.5 253.82 248.49 253.82 248.49 254.81 249.19 255.51 248.49 256.2 248.49 257.19 247.5 257.19 246.81 257.88 246.11 257.19 245.13 257.19 245.13 256.2 244.43 255.51 245.13 254.81 245.13 253.82 246.11 253.82 246.81 253.13"/><polygon class="cls-8" points="246.81 290.14 247.5 290.84 248.49 290.84 248.49 291.82 249.19 292.52 248.49 293.21 248.49 294.2 247.5 294.2 246.81 294.89 246.11 294.2 245.13 294.2 245.13 293.21 244.43 292.52 245.13 291.82 245.13 290.84 246.11 290.84 246.81 290.14"/><polygon class="cls-8" points="246.81 319.8 247.5 320.5 248.49 320.5 248.49 321.48 249.19 322.18 248.49 322.88 248.49 323.86 247.5 323.86 246.81 324.56 246.11 323.86 245.13 323.86 245.13 322.88 244.43 322.18 245.13 321.48 245.13 320.5 246.11 320.5 246.81 319.8"/><polygon class="cls-8" points="259.33 334.2 259.88 334.75 260.67 334.75 260.67 335.53 261.22 336.08 260.67 336.64 260.67 337.42 259.88 337.42 259.33 337.97 258.78 337.42 258 337.42 258 336.64 257.44 336.08 258 335.53 258 334.75 258.78 334.75 259.33 334.2"/><polygon class="cls-8" points="289.13 334.2 289.68 334.75 290.46 334.75 290.46 335.53 291.02 336.08 290.46 336.64 290.46 337.42 289.68 337.42 289.13 337.97 288.58 337.42 287.8 337.42 287.8 336.64 287.24 336.08 287.8 335.53 287.8 334.75 288.58 334.75 289.13 334.2"/><polygon class="cls-8" points="445.5 335.19 446.06 335.74 446.84 335.74 446.84 336.53 447.39 337.08 446.84 337.63 446.84 338.41 446.06 338.41 445.5 338.97 444.95 338.41 444.17 338.41 444.17 337.63 443.62 337.08 444.17 336.53 444.17 335.74 444.95 335.74 445.5 335.19"/><polygon class="cls-8" points="475.38 335.19 475.94 335.74 476.72 335.74 476.72 336.53 477.27 337.08 476.72 337.63 476.72 338.41 475.94 338.41 475.38 338.97 474.83 338.41 474.05 338.41 474.05 337.63 473.5 337.08 474.05 336.53 474.05 335.74 474.83 335.74 475.38 335.19"/><line class="cls-9" x1="444.65" y1="278.7" x2="432.18" y2="278.7"/><path class="cls-10" d="M431.8,292.79a12.56,12.56,0,0,0,13-13.71"/><line class="cls-9" x1="445.77" y1="171.91" x2="432.6" y2="171.91"/><path class="cls-10" d="M432.2,188.62a13,13,0,0,0,10.68-5.29,17,17,0,0,0,3.05-11"/><line class="cls-9" x1="394.11" y1="185.12" x2="394.11" y2="198.86"/><path class="cls-10" d="M379.41,199.28c0-.77-.13-6.92,4.66-11.14A13.2,13.2,0,0,1,393.7,185"/><line class="cls-9" x1="346.24" y1="185.12" x2="346.24" y2="198.86"/><path class="cls-10" d="M360.93,199.28c0-.77.14-6.92-4.65-11.14a13.22,13.22,0,0,0-9.64-3.19"/><line class="cls-9" x1="281.89" y1="158.86" x2="268.15" y2="158.86"/><path class="cls-10" d="M267.73,173.55c.77,0,6.92.14,11.14-4.65a13.17,13.17,0,0,0,3.19-9.64"/><line class="cls-9" x1="298.65" y1="194.81" x2="298.65" y2="184.23"/><path class="cls-10" d="M286.59,183.9a11,11,0,0,0,3.82,8.58,11.29,11.29,0,0,0,7.91,2.46"/><line class="cls-9" x1="290.63" y1="226.59" x2="301.21" y2="226.59"/><path class="cls-10" d="M301.54,214.54a11,11,0,0,0-8.59,3.82,11.31,11.31,0,0,0-2.45,7.91"/><line class="cls-9" x1="290.11" y1="328.55" x2="302.1" y2="328.55"/><path class="cls-10" d="M302.46,313.39a11.84,11.84,0,0,0-9.72,4.8,15.4,15.4,0,0,0-2.77,9.95"/><line class="cls-11" x1="455.26" y1="247.84" x2="455.26" y2="259.27"/><path class="cls-10" d="M442.42,259.62a11.47,11.47,0,0,1,12.49-11.92"/><line class="cls-9" x1="285.98" y1="254.95" x2="285.98" y2="243.9"/><path class="cls-10" d="M274.84,243.56a12.34,12.34,0,0,0,3.53,9,9.6,9.6,0,0,0,7.3,2.56"/><line class="cls-9" x1="285.98" y1="268.8" x2="285.98" y2="279.86"/><path class="cls-10" d="M274.84,280.2a12.34,12.34,0,0,1,3.53-9,9.6,9.6,0,0,1,7.3-2.56"/><line class="cls-9" x1="465.57" y1="247.84" x2="465.57" y2="258.89"/><path class="cls-10" d="M478.56,259.23a11.28,11.28,0,0,0-4.11-9,12.48,12.48,0,0,0-8.52-2.57"/><line class="cls-12" x1="303.91" y1="329.66" x2="430.65" y2="329.66"/><line class="cls-12" x1="431.8" y1="331.48" x2="486.47" y2="331.48"/><line class="cls-12" x1="305.8" y1="335.06" x2="365.93" y2="335.06"/><line class="cls-12" x1="305.8" y1="338.97" x2="365.93" y2="338.97"/><rect class="cls-13" x="326.73" y="334.92" width="15.88" height="1.42"/><rect class="cls-13" x="346.35" y="336.74" width="15.88" height="2.17"/><rect class="cls-13" x="308.22" y="336.74" width="15.88" height="2.17"/><line class="cls-12" x1="369.34" y1="274.85" x2="369.34" y2="302.36"/><line class="cls-12" x1="365.04" y1="275.46" x2="365.04" y2="303.37"/><rect class="cls-12" x="324" y="334.82" width="2.83" height="2.73"/><rect class="cls-12" x="342.94" y="334.82" width="2.83" height="2.73"/><line class="cls-12" x1="371.12" y1="335.06" x2="431.26" y2="335.06"/><line class="cls-12" x1="371.12" y1="338.97" x2="431.26" y2="338.97"/><rect class="cls-13" x="392.06" y="334.92" width="15.88" height="1.42"/><rect class="cls-13" x="411.67" y="336.74" width="15.88" height="2.17"/><rect class="cls-13" x="373.55" y="336.74" width="15.88" height="2.17"/><rect class="cls-12" x="389.33" y="334.82" width="2.83" height="2.73"/><rect class="cls-12" x="408.27" y="334.82" width="2.83" height="2.73"/><rect class="cls-12" x="432.67" y="335.33" width="3.1" height="3.24"/><rect x="484.31" y="335.06" width="2.97" height="3.51"/><line class="cls-12" x1="484.31" y1="334.92" x2="432.4" y2="334.92"/><line class="cls-10" x1="484.31" y1="336.94" x2="432.4" y2="336.94"/><line class="cls-12" x1="484.31" y1="338.97" x2="432.4" y2="338.97"/><line class="cls-10" x1="42.74" y1="59.06" x2="42.74" y2="60.56"/><line class="cls-14" x1="42.74" y1="63.51" x2="42.74" y2="180.12"/><polyline class="cls-10" points="42.74 181.6 42.74 183.1 44.24 183.1"/><line class="cls-15" x1="47.22" y1="183.1" x2="242.4" y2="183.1"/><line class="cls-10" x1="243.89" y1="183.1" x2="245.39" y2="183.1"/><line class="cls-16" x1="234.81" y1="183.84" x2="234.81" y2="345.03"/><path class="cls-17" d="M236.73,348l-2.43-2.63,10.62-9.91.41-2,3-.2.3,1.52,1.92.2-.3,3.14h-3.54Z"/><line class="cls-16" x1="237.03" y1="348.47" x2="486.61" y2="349.33"/><line class="cls-10" x1="251.46" y1="183.51" x2="251.46" y2="242.16"/><line class="cls-10" x1="244.18" y1="157.55" x2="244.18" y2="181.62"/><line class="cls-10" x1="248.36" y1="183.51" x2="248.36" y2="242.16"/><line class="cls-10" x1="244.31" y1="183.24" x2="244.31" y2="235.42"/><line class="cls-11" x1="246.61" y1="184.04" x2="246.61" y2="242.16"/><line class="cls-10" x1="270.2" y1="173.83" x2="270.2" y2="183.03"/><line class="cls-10" x1="266.16" y1="173.83" x2="266.16" y2="181.97"/><line class="cls-11" x1="268.45" y1="173.83" x2="268.45" y2="183.03"/><line class="cls-10" x1="248.36" y1="245.33" x2="248.36" y2="265.95"/><line class="cls-10" x1="244.31" y1="245.33" x2="244.31" y2="266.16"/><line class="cls-11" x1="246.61" y1="245.33" x2="246.61" y2="265.95"/><line class="cls-10" x1="248.36" y1="281.73" x2="248.36" y2="332"/><line class="cls-10" x1="244.31" y1="281.73" x2="244.31" y2="332.49"/><line class="cls-11" x1="246.61" y1="281.73" x2="246.61" y2="332"/><line class="cls-10" x1="300.54" y1="338.36" x2="250.27" y2="338.36"/><line class="cls-10" x1="300.54" y1="334.31" x2="249.78" y2="334.31"/><line class="cls-11" x1="300.54" y1="336.61" x2="250.27" y2="336.61"/><line class="cls-16" x1="366.49" y1="302.29" x2="366.49" y2="328.35"/><line class="cls-16" x1="368.31" y1="302.29" x2="368.31" y2="328.35"/><line class="cls-16" x1="366.08" y1="252.54" x2="366.08" y2="272.66"/><line class="cls-16" x1="367.62" y1="252.54" x2="367.62" y2="272.66"/><line class="cls-16" x1="169.52" y1="157.75" x2="169.52" y2="183.24"/><line class="cls-16" x1="173.12" y1="157.75" x2="173.12" y2="183.24"/><line class="cls-16" x1="247.55" y1="157.75" x2="247.55" y2="183.24"/><rect class="cls-18" x="364.84" y="268.99" width="4.65" height="6.67"/><rect class="cls-18" x="364.84" y="301.25" width="4.65" height="6.67"/><line class="cls-5" x1="366.86" y1="200.22" x2="366.86" y2="254.43"/><line class="cls-16" x1="367.42" y1="170.56" x2="367.42" y2="200.02"/><line class="cls-16" x1="365.46" y1="170.7" x2="365.46" y2="199.96"/><line class="cls-16" x1="338.36" y1="158.76" x2="338.36" y2="189.3"/><line class="cls-16" x1="302.87" y1="158.06" x2="302.87" y2="164.83"/><line class="cls-16" x1="300.13" y1="158.06" x2="300.13" y2="164.83"/><line class="cls-16" x1="302.87" y1="174.03" x2="302.87" y2="180.81"/><line class="cls-16" x1="300.13" y1="174.03" x2="300.13" y2="180.81"/><polyline class="cls-16" points="330.88 188.29 330.88 202.25 344.53 202.25"/><line class="cls-16" x1="248.9" y1="273.71" x2="271.96" y2="273.71"/><polyline class="cls-16" points="414.91 245.43 414.91 243.4 430.48 243.4"/><rect class="cls-12" x="383.6" y="265.08" width="46.99" height="14.12"/><rect class="cls-12" x="386.98" y="265.15" width="43.33" height="10.45"/><rect class="cls-12" x="400.04" y="265.08" width="14.76" height="9.57"/><rect class="cls-12" x="401.93" y="267.84" width="4.25" height="4.38"/><rect class="cls-12" x="408.61" y="267.84" width="4.25" height="4.38"/><rect class="cls-12" x="432.1" y="231.17" width="10.21" height="27.71"/><circle class="cls-12" cx="437.12" cy="238.18" r="3.57"/><circle class="cls-12" cx="437.12" cy="252.88" r="3.57"/><path class="cls-12" d="M432.13,219.57V226a35.26,35.26,0,0,0,4.56-.2c1.16-.12,8.39-.9,8.52-2.49.11-1.33-4.72-2.73-7.1-3.24A25.54,25.54,0,0,0,432.13,219.57Z"/><line class="cls-10" x1="432.2" y1="215.39" x2="456.37" y2="215.39"/><rect class="cls-10" x="434.53" y="204.39" width="19.92" height="9.1" rx="2.07"/><line class="cls-10" x1="463.35" y1="200.9" x2="463.35" y2="259.08"/><line class="cls-10" x1="481.96" y1="200.9" x2="481.96" y2="259.08"/><line class="cls-9" x1="457.75" y1="221.02" x2="463.52" y2="221.02"/><line class="cls-9" x1="457.69" y1="240.1" x2="463.45" y2="240.1"/><line class="cls-9" x1="481.69" y1="221.02" x2="487.42" y2="221.02"/><line class="cls-9" x1="481.69" y1="240.1" x2="487.42" y2="240.1"/><polyline class="cls-11" points="432.4 172.31 432.4 164.36 480 164.36 480 192.94 432.4 192.94"/><text class="cls-19" transform="translate(444.14 304.74)">MASTER<tspan x="-3.65" y="8.46">BEDROOM</tspan></text><text class="cls-20" transform="translate(465.11 369.96)">0</text><text class="cls-21" transform="translate(40.12 375.09)">Floor Plan</text><text class="cls-22" transform="translate(387.29 374.27)">N</text><text class="cls-20" transform="translate(474.09 369.96)">2</text><text class="cls-20" transform="translate(482.77 369.96)">4</text><text class="cls-20" transform="translate(500.99 369.96)">8</text><text class="cls-20" transform="translate(533.03 369.96)">16</text><text class="cls-19" transform="translate(442.75 189.53)">STORAGE</text><text class="cls-19" transform="translate(385.8 261.83)">KITCHEN</text><text class="cls-19" transform="translate(375.19 309.57)">DINING ROOM</text><text class="cls-19" transform="translate(369.61 539.59)">LIVING<tspan x="1.03" y="8.46">ROOM</tspan></text><text class="cls-19" transform="translate(372.14 233.12)">MECHANICAL</text><rect class="cls-11" x="407.46" y="189.44" width="10.25" height="9.03"/><rect class="cls-11" x="418.92" y="189.44" width="10.25" height="9.03"/><circle class="cls-10" cx="422.8" cy="164.39" r="4.45"/><circle class="cls-10" cx="411.17" cy="163.7" r="3.54"/><rect class="cls-10" x="412.08" y="212.76" width="11.83" height="11.93"/><rect class="cls-10" x="413.39" y="214.09" width="8.49" height="9.28"/><circle class="cls-10" cx="425.83" cy="218.73" r="1.62"/><circle class="cls-10" cx="425.83" cy="218.73" r="0.86"/><rect class="cls-10" x="400.75" y="238.75" width="12.84" height="11.12"/><rect class="cls-10" x="368.09" y="238.75" width="12.84" height="11.12"/><line class="cls-10" x1="380.63" y1="248.56" x2="400.65" y2="248.56"/><line class="cls-10" x1="413.49" y1="248.46" x2="430.48" y2="248.46"/><polyline class="cls-16" points="368.39 243.2 399.94 243.2 400.95 245.22 413.29 245.22"/><rect class="cls-12" x="349.89" y="157.45" width="11.6" height="2.6"/><line class="cls-12" x1="361.21" y1="202.38" x2="361.21" y2="236.76"/><line class="cls-12" x1="379.39" y1="201.82" x2="394.13" y2="201.82"/><text class="cls-19" transform="translate(308.09 291.24)">LIVING ROOM</text><text class="cls-19" transform="translate(289.04 170.7)">ENTRY</text><text class="cls-19" transform="translate(256.31 212.56)">BEDROOM</text><text class="cls-19" transform="translate(258.13 307.82)">BEDROOM</text><line class="cls-10" x1="302.76" y1="238.25" x2="334.92" y2="238.25"/><line class="cls-10" x1="251.8" y1="280.52" x2="251.8" y2="330.91"/><line class="cls-10" x1="300.74" y1="330.88" x2="251.8" y2="330.88"/><path class="cls-18" d="M303.15,229.47h31v8.9h9.17v-2.83l-8.76-10.92-3.64,2.83L303.37,190l3-3-3.57-5.59h-4.45v2h2.29v31.21H303V194.43l24.14,32.69-24,.07Z"/><line class="cls-16" x1="303.1" y1="202.65" x2="320.49" y2="226.92"/><line class="cls-10" x1="306.34" y1="186.74" x2="334.92" y2="225.44"/><line class="cls-10" x1="312.07" y1="202.45" x2="315.81" y2="199.82"/><line class="cls-10" x1="321.47" y1="215.19" x2="325.21" y2="212.56"/><path class="cls-10" d="M334.38,188.54V173.23l-1.25-.91V156.89h-1v16.59l1.31,1.28,0,13.78Z"/><line class="cls-10" x1="288" y1="244.04" x2="288" y2="268.58"/><rect class="cls-10" x="289.74" y="245.39" width="9.71" height="21.17" rx="2.63"/><rect class="cls-10" x="261.81" y="244.72" width="11.93" height="8.09"/><circle class="cls-10" cx="267.67" cy="248.87" r="3.24"/><path class="cls-10" d="M251.19,245.33h8.39c-.93,6.7-2.83,11.46-4.45,11.42S251.86,251.93,251.19,245.33Z"/><rect class="cls-23" x="264.03" y="243.1" width="6.88" height="0.81"/><line class="cls-5" x1="285.17" y1="182.8" x2="245.19" y2="182.8"/><line class="cls-10" x1="266.26" y1="158.26" x2="266.26" y2="174.34"/><path class="cls-5" d="M44,12V56.22H169.89l0,100.05L488.36,156V348h53.12"/><rect class="cls-8" x="466.58" y="378.71" width="5.26" height="5.06"/><rect class="cls-8" x="476.39" y="379.21" width="8.7" height="5.06"/><rect class="cls-8" x="485.29" y="374.06" width="18.3" height="5.06"/><rect class="cls-8" x="503.7" y="379.11" width="37.21" height="5.06"/><rect class="cls-8" x="471.64" y="373.96" width="4.85" height="5.06"/><polygon class="cls-24" points="398.83 366.17 398.23 364.35 407.43 358.58 417.13 364.05 416.53 366.27 409.45 362.93 409.45 374.36 405.91 374.36 405.91 362.93 398.83 366.17"/><line class="cls-5" x1="443.07" y1="647.39" x2="37.21" y2="647.39"/><text class="cls-20" transform="translate(438.77 634.1)">0</text><text class="cls-21" transform="translate(35.6 639.29)">Section</text><text class="cls-20" transform="translate(450.54 633.78)">2</text><text class="cls-20" transform="translate(463.87 633.78)">4</text><text class="cls-20" transform="translate(490.24 634.17)">8</text><text class="cls-20" transform="translate(533.92 634.94)">16</text><rect class="cls-8" x="440.76" y="644.46" width="6.2" height="5.06"/><rect class="cls-8" x="453.17" y="644.97" width="12.13" height="5.06"/><rect class="cls-8" x="466.1" y="639.54" width="26.04" height="5.06"/><rect class="cls-8" x="493" y="644.87" width="49.97" height="5.06"/><rect class="cls-8" x="446.92" y="639.71" width="6.39" height="5.06"/><line class="cls-7" x1="272.53" y1="267.93" x2="272.53" y2="278.9"/><path class="cls-26" d="M271.75,278.43H261.24v2.15h.8v-1.07h9.71Z"/><rect class="cls-26" x="248.92" y="278.49" width="3.74" height="2.07"/><polygon class="cls-26" points="261.25 279.36 261.25 280.59 252.51 280.59 252.51 279.3 261.25 279.36"/><rect class="cls-8" x="249.07" y="242.19" width="26.39" height="2.33"/><rect class="cls-27" x="263.83" y="243" width="7.08" height="1.01"/><rect class="cls-8" x="286.25" y="242.16" width="15.24" height="1.75"/><rect class="cls-8" x="245.26" y="235.42" width="3.35" height="10.11"/><line class="cls-5" x1="403.69" y1="564.81" x2="170.7" y2="564.81"/><line class="cls-5" x1="403.69" y1="570.61" x2="170.7" y2="570.61"/><line class="cls-10" x1="387.91" y1="565.08" x2="387.91" y2="569.93"/><line class="cls-10" x1="373.21" y1="565.08" x2="373.21" y2="569.93"/><line class="cls-10" x1="358.52" y1="565.08" x2="358.52" y2="569.93"/><line class="cls-10" x1="343.82" y1="565.08" x2="343.82" y2="569.93"/><line class="cls-10" x1="329.12" y1="565.08" x2="329.12" y2="569.93"/><line class="cls-10" x1="314.43" y1="565.08" x2="314.43" y2="569.93"/><line class="cls-10" x1="299.73" y1="565.08" x2="299.73" y2="569.93"/><line class="cls-10" x1="285.03" y1="565.08" x2="285.03" y2="569.93"/><line class="cls-10" x1="270.34" y1="565.08" x2="270.34" y2="569.93"/><line class="cls-10" x1="255.64" y1="565.08" x2="255.64" y2="569.93"/><line class="cls-10" x1="240.94" y1="565.08" x2="240.94" y2="569.93"/><line class="cls-10" x1="226.25" y1="565.08" x2="226.25" y2="569.93"/><line class="cls-10" x1="211.55" y1="565.08" x2="211.55" y2="569.93"/><line class="cls-10" x1="196.85" y1="565.08" x2="196.85" y2="569.93"/><line class="cls-10" x1="182.16" y1="565.08" x2="182.16" y2="569.93"/><path class="cls-10" d="M185.71,513.05l.36,49.33H170.56V513Z"/><polyline class="cls-28" points="190.55 561.57 190.55 520.85 213.07 520.85 213.07 562.25"/><polyline class="cls-28" points="192.37 563.19 192.37 522.34 211.25 522.34 211.25 563.73"/><line class="cls-10" x1="186.07" y1="561.94" x2="191.12" y2="561.94"/><line class="cls-10" x1="211.75" y1="561.94" x2="298.38" y2="561.94"/><line class="cls-10" x1="225.71" y1="520.23" x2="225.71" y2="561.94"/><line class="cls-10" x1="273.84" y1="512.49" x2="273.84" y2="561.94"/><line class="cls-10" x1="276.27" y1="512.49" x2="276.27" y2="561.94"/><line class="cls-10" x1="297.98" y1="512.49" x2="297.98" y2="561.94"/><line class="cls-10" x1="316.45" y1="512.49" x2="316.45" y2="564"/><line class="cls-11" x1="228.83" y1="518.76" x2="228.83" y2="561.94"/><line class="cls-11" x1="243.39" y1="519.24" x2="243.39" y2="561.94"/><line class="cls-11" x1="258.89" y1="519.24" x2="258.89" y2="561.94"/><line class="cls-11" x1="273.84" y1="519.17" x2="229.21" y2="519.17"/><line class="cls-11" x1="273.84" y1="524.83" x2="229.21" y2="524.83"/><line class="cls-11" x1="273.84" y1="530.49" x2="229.21" y2="530.49"/><line class="cls-11" x1="273.84" y1="536.55" x2="229.21" y2="536.55"/><line class="cls-11" x1="273.84" y1="542.21" x2="229.21" y2="542.21"/><line class="cls-11" x1="273.84" y1="548.26" x2="229.21" y2="548.26"/><line class="cls-11" x1="273.84" y1="554.31" x2="229.21" y2="554.31"/><polyline class="cls-10" points="316.18 539.34 310.79 539.34 310.79 564"/><rect class="cls-10" x="325.35" y="539.73" width="6.74" height="7.28"/><path class="cls-10" d="M341.19,521.12h.54a16,16,0,0,1,16,16V547a0,0,0,0,1,0,0H325.35a0,0,0,0,1,0,0V537A15.84,15.84,0,0,1,341.19,521.12Z"/><rect class="cls-10" x="325.01" y="547.08" width="32.76" height="1.52"/><rect class="cls-10" x="331.69" y="547.08" width="19.42" height="1.52"/><rect class="cls-10" x="332.39" y="548.7" width="18.76" height="10.16"/><rect class="cls-10" x="335.58" y="550.37" width="11.78" height="7.13"/><rect class="cls-10" x="333.66" y="549.71" width="16.53" height="8.39"/><polygon class="cls-10" points="332.33 558.25 331.43 559.16 331.43 563.48 335.01 558.86 332.52 558.86 332.33 558.25"/><polygon class="cls-10" points="351.17 558.25 352.06 559.16 352.06 563.48 348.49 558.86 350.98 558.86 351.17 558.25"/><rect class="cls-28" x="339.37" y="484.58" width="4.85" height="57.64"/><polygon class="cls-10" points="345.34 484.48 344.63 481.05 339.77 481.05 338.76 484.38 345.34 484.48"/><path class="cls-10" d="M338.06,546.47l1.31-4.25h4.85l1,4.25Z"/><rect class="cls-10" x="366.07" y="513.3" width="29.93" height="50.7"/><line class="cls-10" x1="408.03" y1="517.52" x2="408.03" y2="559.82"/><line class="cls-10" x1="406.01" y1="519.22" x2="406.01" y2="558.12"/><line class="cls-10" x1="404.12" y1="517.52" x2="404.12" y2="559.82"/><rect class="cls-29" x="405.69" y="556.79" width="1.21" height="2.63"/><rect class="cls-29" x="405.3" y="517.2" width="1.21" height="2.63"/><rect class="cls-29" x="403.89" y="512.36" width="4.25" height="5.29"/><rect class="cls-30" x="166.65" y="506.43" width="3.64" height="63.51"/><rect class="cls-30" x="164.02" y="569.73" width="8.9" height="4.58"/><rect class="cls-30" x="402.47" y="561.03" width="3.64" height="27.24"/><rect class="cls-30" x="399.84" y="587.12" width="8.9" height="4.58"/><polyline class="cls-31" points="408.4 559.82 398.02 559.82 398.02 563.9"/><line class="cls-31" x1="170.35" y1="513.03" x2="420.47" y2="513.03"/><line class="cls-31" x1="169.58" y1="507.22" x2="420.47" y2="507.22"/><rect class="cls-30" x="177.27" y="507.54" width="2.91" height="5.26"/><rect class="cls-30" x="185.61" y="507.54" width="2.91" height="5.26"/><rect class="cls-30" x="193.37" y="507.54" width="2.91" height="5.26"/><rect class="cls-30" x="201.4" y="507.54" width="2.91" height="5.26"/><rect class="cls-30" x="209.42" y="507.54" width="2.91" height="5.26"/><rect class="cls-30" x="217.44" y="507.54" width="2.91" height="5.26"/><rect class="cls-30" x="225.46" y="507.54" width="2.91" height="5.26"/><rect class="cls-30" x="233.49" y="507.54" width="2.91" height="5.26"/><rect class="cls-30" x="241.51" y="507.54" width="2.91" height="5.26"/><rect class="cls-30" x="249.53" y="507.54" width="2.91" height="5.26"/><rect class="cls-30" x="257.55" y="507.54" width="2.91" height="5.26"/><rect class="cls-30" x="265.58" y="507.54" width="2.91" height="5.26"/><rect class="cls-30" x="273.6" y="507.54" width="2.91" height="5.26"/><rect class="cls-30" x="283.17" y="507.54" width="2.91" height="5.26"/><rect class="cls-30" x="292.36" y="507.54" width="2.91" height="5.26"/><rect class="cls-30" x="301.16" y="507.15" width="2.91" height="5.26"/><rect class="cls-30" x="308.92" y="507.4" width="2.91" height="5.26"/><rect class="cls-30" x="317.42" y="507.27" width="2.91" height="5.26"/><rect class="cls-30" x="325.98" y="507.4" width="2.91" height="5.26"/><rect class="cls-30" x="353.82" y="507.54" width="2.91" height="5.26"/><rect class="cls-30" x="363.26" y="507.27" width="2.91" height="5.26"/><rect class="cls-30" x="372.63" y="507.47" width="2.91" height="5.26"/><rect class="cls-30" x="381.67" y="507.47" width="2.91" height="5.26"/><rect class="cls-30" x="390.77" y="507.4" width="2.91" height="5.26"/><rect class="cls-30" x="400.54" y="507.54" width="10.56" height="5.26"/><rect class="cls-29" x="420" y="505.08" width="4.45" height="8.36"/><line class="cls-10" x1="423.51" y1="512.76" x2="423.51" y2="564.57"/><text class="cls-19" transform="translate(182.92 546.19)">LAUNDRY</text><rect class="cls-32" x="225.4" y="513.4" width="3.69" height="7.69"/><polygon class="cls-3" points="405.96 497.88 418.7 497.88 406.92 506.16 405.96 497.88"/><rect class="cls-30" x="335.15" y="507.4" width="2.91" height="5.26"/><rect class="cls-30" x="345.8" y="507.54" width="2.91" height="5.26"/><rect class="cls-2" x="337.15" y="498.13" width="15.27" height="8.49"/><path class="cls-33" d="M406.6,506.76l12.2-8.69h5.33v8h-3.84v-6.35l-9.51,7Z"/><rect x="244.04" y="265.62" width="4.45" height="16.45"/></g></g></svg>