<svg width="1200" height="800" viewBox="0 0 1200 800" xmlns="http://www.w3.org/2000/svg" aria-label="South Wall/Roof/Floor Section (architectural redraw)">
  <style>
    .k2 { fill: none; stroke: #000; stroke-width: 2; stroke-linejoin: miter; stroke-linecap: butt; }
    .k1 { fill: none; stroke: #000; stroke-width: 1; stroke-linejoin: miter; stroke-linecap: butt; }
    .k05 { fill: none; stroke: #000; stroke-width: 0.75; stroke-linejoin: miter; stroke-linecap: butt; }
    .poche { fill: #eaeaea; stroke: none; }
    .poche2 { fill: #dcdcdc; stroke: none; }
    .label { font-family: Helvetica, Arial, sans-serif; font-size: 18px; }
    .title { font-family: Helvetica, Arial, sans-serif; font-size: 22px; font-weight: 600; }
    .leader { stroke: #000; stroke-width: 1; }
  </style>

  <g id="earth-cover">
    <path class="poche" d="M420 80 L900 80 L760 245 L420 245 Z"/>
    <path class="k2" d="M420 80 L900 80"/>
    <path class="k1" d="M900 80 L760 245"/>
    <path class="k1" d="M420 245 L760 245"/>
  </g>

  <g id="flashing">
    <path class="k2" d="M890 78 L930 78 L930 98 L902 98 L885 118"/>
    <path class="k1" d="M902 98 L885 118"/>
    <path class="k1" d="M930 98 L940 110"/>
  </g>

  <g id="roof-buildup">
    <rect class="k1" x="440" y="250" width="305" height="22"/>
    <rect class="k1" x="440" y="272" width="305" height="22"/>
    <rect class="k1" x="440" y="294" width="305" height="22"/>

    <rect class="poche2" x="440" y="318" width="305" height="14"/>
    <rect class="k2" x="440" y="318" width="305" height="14"/>

    <rect class="k2" x="440" y="332" width="305" height="40"/>

    <path class="k2" d="M745 250 L820 250 L820 372 L745 372"/>
    <path class="k2" d="M820 250 L845 230 L845 372 L820 372"/>

    <g id="timbers">
      <rect class="k2" x="460" y="372" width="26" height="70"/>
      <rect class="k2" x="505" y="372" width="26" height="70"/>
      <rect class="k2" x="550" y="372" width="26" height="70"/>
      <rect class="k2" x="595" y="372" width="26" height="70"/>
      <rect class="k2" x="640" y="372" width="26" height="70"/>
      <rect class="k2" x="685" y="372" width="26" height="70"/>
    </g>

    <path class="k2" d="M440 442 L745 442"/>
  </g>

  <g id="south-wall">
    <path class="k2" d="M845 230 L905 230 L905 620 L845 620 Z"/>

    <path class="k2" d="M865 360 L905 360"/>
    <path class="k2" d="M865 520 L905 520"/>
    <path class="k1" d="M865 360 L865 520"/>
    <path class="k1" d="M878 365 L878 515"/>
    <path class="k05" d="M890 365 L890 515"/>
  </g>

  <g id="double-slab">
    <rect class="k2" x="440" y="520" width="425" height="34"/>
    <rect class="k1" x="440" y="554" width="425" height="36"/>
    <rect class="k2" x="440" y="590" width="425" height="34"/>

    <path class="k05" d="M460 572 L845 572"/>
    <path class="k05" d="M470 580 L470 590 M520 580 L520 590 M570 580 L570 590 M620 580 L620 590 M670 580 L670 590 M720 580 L720 590 M770 580 L770 590 M820 580 L820 590"/>
  </g>

  <g id="foundation">
    <path class="k2" d="M845 620 L915 620 L915 650 L845 650 Z"/>
    <path class="k2" d="M830 650 L930 650 L930 690 L830 690 Z"/>
    <path class="k1" d="M865 520 L865 624"/>
  </g>

  <g id="right-grade">
    <path class="poche" d="M915 420 L1180 500 L1180 760 L915 760 Z"/>
    <path class="k1" d="M915 420 L1180 500"/>
  </g>

  <g id="callouts">
    <text class="label" x="40" y="105">LEAD-COATED COPPER FLASHING</text>
    <line class="leader" x1="360" y1="100" x2="900" y2="95"/>

    <text class="label" x="40" y="145">EARTH COVER</text>
    <line class="leader" x1="240" y1="140" x2="520" y2="140"/>

    <text class="label" x="40" y="285">3 LAYERS RIGID INSULATION</text>
    <line class="leader" x1="335" y1="280" x2="440" y2="283"/>

    <text class="label" x="40" y="335">WATERPROOFING</text>
    <line class="leader" x1="240" y1="330" x2="440" y2="325"/>

    <text class="label" x="40" y="385">PLYWOOD PARAPET</text>
    <text class="label" x="40" y="410">TONGUE AND GROOVE ROOF DECKING</text>
    <line class="leader" x1="360" y1="395" x2="440" y2="360"/>

    <text class="label" x="40" y="465">STRUCTURAL TIMBERS</text>
    <line class="leader" x1="305" y1="460" x2="470" y2="410"/>

    <text class="label" x="40" y="620">DOUBLE-SLAB AIR PLENUM</text>
    <line class="leader" x1="330" y1="615" x2="440" y2="575"/>
  </g>

  <text class="title" x="40" y="760">South Wall/Roof/Floor Section</text>
  <line class="k2" x1="40" y1="772" x2="420" y2="772"/>
</svg>
